<svg width="12" height="20" viewBox="0 0 12 20" fill="none" xmlns="http://www.w3.org/2000/svg">
<path d="M11.7045 13.3337C12.0987 13.7248 12.0983 14.3582 11.7045 14.749L6.741 19.6751C6.55598 19.8744 6.29106 19.9994 5.99932 19.9994C5.70074 19.9994 5.43026 19.8685 5.24476 19.661L0.295471 14.749C-0.0986649 14.3579 -0.0983168 13.7245 0.295471 13.3337C0.689259 12.9428 1.32747 12.9425 1.7216 13.3337L4.99089 16.5783L4.99089 1.00067C4.99089 0.448388 5.44703 0.0006711 5.99932 0.000671124C6.5516 0.000671149 7.00775 0.448387 7.00775 1.00067L7.00774 16.5796L10.2784 13.3337C10.4622 13.1512 10.6993 13.0541 10.9399 13.042C11.2146 13.0278 11.4942 13.1249 11.7045 13.3337Z" fill="white"/>
</svg>
